<mxfile host="app.diagrams.net" modified="2023-12-13T14:37:13.164Z" agent="Mozilla/5.0 (Windows NT 10.0; Win64; x64) AppleWebKit/537.36 (KHTML, like Gecko) Chrome/120.0.0.0 Safari/537.36" etag="vOg_85wRGlZkrcB9u1F8" version="22.1.8" type="github">
  <diagram name="Page-1" id="M5fkA0NTCuxxpWrqIJnD">
    <mxGraphModel dx="1434" dy="780" grid="1" gridSize="10" guides="1" tooltips="1" connect="1" arrows="1" fold="1" page="1" pageScale="1" pageWidth="827" pageHeight="1169" math="0" shadow="0">
      <root>
        <mxCell id="0" />
        <mxCell id="1" parent="0" />
        <mxCell id="ydcdsmG6oSax_6Ukrgsq-1" value="Pool" style="swimlane;html=1;childLayout=stackLayout;resizeParent=1;resizeParentMax=0;horizontal=0;startSize=20;horizontalStack=0;whiteSpace=wrap;" parent="1" vertex="1">
          <mxGeometry width="820" height="240" as="geometry" />
        </mxCell>
        <mxCell id="ydcdsmG6oSax_6Ukrgsq-2" value="Logisticien" style="swimlane;html=1;startSize=20;horizontal=0;" parent="ydcdsmG6oSax_6Ukrgsq-1" vertex="1">
          <mxGeometry x="20" width="800" height="240" as="geometry" />
        </mxCell>
        <mxCell id="p9-ZJcgVU1PTTY-aC_kq-15" value="" style="points=[[0.145,0.145,0],[0.5,0,0],[0.855,0.145,0],[1,0.5,0],[0.855,0.855,0],[0.5,1,0],[0.145,0.855,0],[0,0.5,0]];shape=mxgraph.bpmn.event;html=1;verticalLabelPosition=bottom;labelBackgroundColor=#ffffff;verticalAlign=top;align=center;perimeter=ellipsePerimeter;outlineConnect=0;aspect=fixed;outline=standard;symbol=general;" vertex="1" parent="ydcdsmG6oSax_6Ukrgsq-2">
          <mxGeometry x="21" y="80" width="40" height="40" as="geometry" />
        </mxCell>
        <mxCell id="p9-ZJcgVU1PTTY-aC_kq-23" value="" style="points=[[0.25,0.25,0],[0.5,0,0],[0.75,0.25,0],[1,0.5,0],[0.75,0.75,0],[0.5,1,0],[0.25,0.75,0],[0,0.5,0]];shape=mxgraph.bpmn.gateway2;html=1;verticalLabelPosition=bottom;labelBackgroundColor=#ffffff;verticalAlign=top;align=center;perimeter=rhombusPerimeter;outlineConnect=0;outline=none;symbol=none;gwType=exclusive;" vertex="1" parent="ydcdsmG6oSax_6Ukrgsq-2">
          <mxGeometry x="140" y="80" width="40" height="40" as="geometry" />
        </mxCell>
        <mxCell id="p9-ZJcgVU1PTTY-aC_kq-24" value="" style="edgeStyle=elbowEdgeStyle;fontSize=12;html=1;endArrow=blockThin;endFill=1;rounded=0;entryX=0;entryY=0.5;entryDx=0;entryDy=0;entryPerimeter=0;" edge="1" parent="ydcdsmG6oSax_6Ukrgsq-2" target="p9-ZJcgVU1PTTY-aC_kq-23">
          <mxGeometry width="160" relative="1" as="geometry">
            <mxPoint x="62" y="99.83" as="sourcePoint" />
            <mxPoint x="130" y="100" as="targetPoint" />
          </mxGeometry>
        </mxCell>
        <mxCell id="p9-ZJcgVU1PTTY-aC_kq-27" value="" style="edgeStyle=elbowEdgeStyle;fontSize=12;html=1;endArrow=blockThin;endFill=1;rounded=0;" edge="1" parent="ydcdsmG6oSax_6Ukrgsq-2">
          <mxGeometry width="160" relative="1" as="geometry">
            <mxPoint x="200" y="80" as="sourcePoint" />
            <mxPoint x="200" y="80" as="targetPoint" />
          </mxGeometry>
        </mxCell>
        <mxCell id="p9-ZJcgVU1PTTY-aC_kq-33" value="" style="points=[[0.145,0.145,0],[0.5,0,0],[0.855,0.145,0],[1,0.5,0],[0.855,0.855,0],[0.5,1,0],[0.145,0.855,0],[0,0.5,0]];shape=mxgraph.bpmn.event;html=1;verticalLabelPosition=bottom;labelBackgroundColor=#ffffff;verticalAlign=top;align=center;perimeter=ellipsePerimeter;outlineConnect=0;aspect=fixed;outline=end;symbol=terminate2;" vertex="1" parent="ydcdsmG6oSax_6Ukrgsq-2">
          <mxGeometry x="221" y="20" width="39" height="39" as="geometry" />
        </mxCell>
        <mxCell id="p9-ZJcgVU1PTTY-aC_kq-72" value="" style="edgeStyle=elbowEdgeStyle;fontSize=12;html=1;endArrow=blockThin;endFill=1;rounded=0;" edge="1" parent="ydcdsmG6oSax_6Ukrgsq-2">
          <mxGeometry width="160" relative="1" as="geometry">
            <mxPoint x="160" y="120" as="sourcePoint" />
            <mxPoint x="300" y="160" as="targetPoint" />
            <Array as="points">
              <mxPoint x="160" y="170" />
            </Array>
          </mxGeometry>
        </mxCell>
        <mxCell id="p9-ZJcgVU1PTTY-aC_kq-73" value="" style="edgeStyle=elbowEdgeStyle;fontSize=12;html=1;endArrow=blockThin;endFill=1;rounded=0;entryX=0;entryY=0.5;entryDx=0;entryDy=0;entryPerimeter=0;" edge="1" parent="ydcdsmG6oSax_6Ukrgsq-2" target="p9-ZJcgVU1PTTY-aC_kq-33">
          <mxGeometry width="160" relative="1" as="geometry">
            <mxPoint x="160" y="80" as="sourcePoint" />
            <mxPoint x="190" y="40" as="targetPoint" />
            <Array as="points">
              <mxPoint x="160" y="50" />
            </Array>
          </mxGeometry>
        </mxCell>
        <mxCell id="p9-ZJcgVU1PTTY-aC_kq-60" value="" style="points=[[0.25,0.25,0],[0.5,0,0],[0.75,0.25,0],[1,0.5,0],[0.75,0.75,0],[0.5,1,0],[0.25,0.75,0],[0,0.5,0]];shape=mxgraph.bpmn.gateway2;html=1;verticalLabelPosition=bottom;labelBackgroundColor=#ffffff;verticalAlign=top;align=center;perimeter=rhombusPerimeter;outlineConnect=0;outline=none;symbol=none;gwType=exclusive;" vertex="1" parent="ydcdsmG6oSax_6Ukrgsq-2">
          <mxGeometry x="301" y="140" width="40" height="40" as="geometry" />
        </mxCell>
        <mxCell id="p9-ZJcgVU1PTTY-aC_kq-67" value="" style="points=[[0.145,0.145,0],[0.5,0,0],[0.855,0.145,0],[1,0.5,0],[0.855,0.855,0],[0.5,1,0],[0.145,0.855,0],[0,0.5,0]];shape=mxgraph.bpmn.event;html=1;verticalLabelPosition=bottom;labelBackgroundColor=#ffffff;verticalAlign=top;align=center;perimeter=ellipsePerimeter;outlineConnect=0;aspect=fixed;outline=end;symbol=terminate2;" vertex="1" parent="ydcdsmG6oSax_6Ukrgsq-2">
          <mxGeometry x="419" y="20" width="39" height="39" as="geometry" />
        </mxCell>
        <mxCell id="p9-ZJcgVU1PTTY-aC_kq-70" value="Logisticien insère les nouveaux produits dans Odoo" style="points=[[0.25,0,0],[0.5,0,0],[0.75,0,0],[1,0.25,0],[1,0.5,0],[1,0.75,0],[0.75,1,0],[0.5,1,0],[0.25,1,0],[0,0.75,0],[0,0.5,0],[0,0.25,0]];shape=mxgraph.bpmn.task;whiteSpace=wrap;rectStyle=rounded;size=10;html=1;container=1;expand=0;collapsible=0;taskMarker=abstract;" vertex="1" parent="ydcdsmG6oSax_6Ukrgsq-2">
          <mxGeometry x="419" y="125" width="91" height="70" as="geometry" />
        </mxCell>
        <mxCell id="p9-ZJcgVU1PTTY-aC_kq-78" value="Est-ce que toute les pièces sont preésentes ?" style="text;html=1;strokeColor=none;fillColor=none;align=center;verticalAlign=middle;whiteSpace=wrap;rounded=0;" vertex="1" parent="ydcdsmG6oSax_6Ukrgsq-2">
          <mxGeometry x="181" y="85" width="120" height="30" as="geometry" />
        </mxCell>
        <mxCell id="p9-ZJcgVU1PTTY-aC_kq-79" value="Non" style="text;html=1;strokeColor=none;fillColor=none;align=center;verticalAlign=middle;whiteSpace=wrap;rounded=0;" vertex="1" parent="ydcdsmG6oSax_6Ukrgsq-2">
          <mxGeometry x="100" y="50" width="60" height="30" as="geometry" />
        </mxCell>
        <mxCell id="p9-ZJcgVU1PTTY-aC_kq-80" value="Oui" style="text;html=1;strokeColor=none;fillColor=none;align=center;verticalAlign=middle;whiteSpace=wrap;rounded=0;" vertex="1" parent="ydcdsmG6oSax_6Ukrgsq-2">
          <mxGeometry x="100" y="130" width="60" height="30" as="geometry" />
        </mxCell>
        <mxCell id="p9-ZJcgVU1PTTY-aC_kq-81" value="" style="edgeStyle=elbowEdgeStyle;fontSize=12;html=1;endArrow=blockThin;endFill=1;rounded=0;entryX=0;entryY=0.5;entryDx=0;entryDy=0;entryPerimeter=0;exitX=1;exitY=0.5;exitDx=0;exitDy=0;exitPerimeter=0;" edge="1" parent="ydcdsmG6oSax_6Ukrgsq-2" source="p9-ZJcgVU1PTTY-aC_kq-60" target="p9-ZJcgVU1PTTY-aC_kq-70">
          <mxGeometry width="160" relative="1" as="geometry">
            <mxPoint x="344" y="160" as="sourcePoint" />
            <mxPoint x="410" y="160" as="targetPoint" />
          </mxGeometry>
        </mxCell>
        <mxCell id="p9-ZJcgVU1PTTY-aC_kq-83" value="" style="edgeStyle=elbowEdgeStyle;fontSize=12;html=1;endArrow=blockThin;endFill=1;rounded=0;entryX=0;entryY=0.5;entryDx=0;entryDy=0;entryPerimeter=0;" edge="1" parent="ydcdsmG6oSax_6Ukrgsq-2" target="p9-ZJcgVU1PTTY-aC_kq-67">
          <mxGeometry width="160" relative="1" as="geometry">
            <mxPoint x="320.7" y="140" as="sourcePoint" />
            <mxPoint x="320" y="40" as="targetPoint" />
            <Array as="points">
              <mxPoint x="320" y="80" />
            </Array>
          </mxGeometry>
        </mxCell>
        <mxCell id="p9-ZJcgVU1PTTY-aC_kq-84" value="Est-ce que toute les pièces reçu sont fonctionnel ?" style="text;html=1;strokeColor=none;fillColor=none;align=center;verticalAlign=middle;whiteSpace=wrap;rounded=0;" vertex="1" parent="ydcdsmG6oSax_6Ukrgsq-2">
          <mxGeometry x="270.5" y="190" width="101" height="30" as="geometry" />
        </mxCell>
        <mxCell id="p9-ZJcgVU1PTTY-aC_kq-85" value="Oui" style="text;html=1;strokeColor=none;fillColor=none;align=center;verticalAlign=middle;whiteSpace=wrap;rounded=0;" vertex="1" parent="ydcdsmG6oSax_6Ukrgsq-2">
          <mxGeometry x="341" y="130" width="60" height="30" as="geometry" />
        </mxCell>
        <mxCell id="p9-ZJcgVU1PTTY-aC_kq-86" value="Non" style="text;html=1;strokeColor=none;fillColor=none;align=center;verticalAlign=middle;whiteSpace=wrap;rounded=0;" vertex="1" parent="ydcdsmG6oSax_6Ukrgsq-2">
          <mxGeometry x="320" y="80" width="60" height="30" as="geometry" />
        </mxCell>
        <mxCell id="p9-ZJcgVU1PTTY-aC_kq-87" value="" style="edgeStyle=elbowEdgeStyle;fontSize=12;html=1;endArrow=blockThin;endFill=1;rounded=0;entryX=0;entryY=0.5;entryDx=0;entryDy=0;entryPerimeter=0;" edge="1" parent="ydcdsmG6oSax_6Ukrgsq-2" target="p9-ZJcgVU1PTTY-aC_kq-88">
          <mxGeometry width="160" relative="1" as="geometry">
            <mxPoint x="510" y="160" as="sourcePoint" />
            <mxPoint x="560" y="160" as="targetPoint" />
          </mxGeometry>
        </mxCell>
        <mxCell id="p9-ZJcgVU1PTTY-aC_kq-88" value="" style="points=[[0.145,0.145,0],[0.5,0,0],[0.855,0.145,0],[1,0.5,0],[0.855,0.855,0],[0.5,1,0],[0.145,0.855,0],[0,0.5,0]];shape=mxgraph.bpmn.event;html=1;verticalLabelPosition=bottom;labelBackgroundColor=#ffffff;verticalAlign=top;align=center;perimeter=ellipsePerimeter;outlineConnect=0;aspect=fixed;outline=end;symbol=terminate2;" vertex="1" parent="ydcdsmG6oSax_6Ukrgsq-2">
          <mxGeometry x="581" y="140" width="39" height="39" as="geometry" />
        </mxCell>
        <mxCell id="p9-ZJcgVU1PTTY-aC_kq-89" value="" style="points=[[0.145,0.145,0],[0.5,0,0],[0.855,0.145,0],[1,0.5,0],[0.855,0.855,0],[0.5,1,0],[0.145,0.855,0],[0,0.5,0]];shape=mxgraph.bpmn.event;html=1;verticalLabelPosition=bottom;labelBackgroundColor=#ffffff;verticalAlign=top;align=center;perimeter=ellipsePerimeter;outlineConnect=0;aspect=fixed;outline=end;symbol=message;" vertex="1" parent="1">
          <mxGeometry x="180" y="370" width="50" height="50" as="geometry" />
        </mxCell>
      </root>
    </mxGraphModel>
  </diagram>
</mxfile>
